<svg width="58" height="58" viewBox="0 0 58 58" fill="none" xmlns="http://www.w3.org/2000/svg">
<g id="mdi:instagram">
<path id="Vector" d="M20.8259 5.64633L39.9006 6.83556C47.1672 7.2886 52.7032 13.5608 52.2502 20.8273L51.0609 39.9021C50.8431 43.3951 49.2467 46.6586 46.6227 48.9746C43.9987 51.2906 40.5622 52.4693 37.0692 52.2516L17.9944 51.0623C10.7279 50.6093 5.19187 44.3371 5.64491 37.0706L6.83414 17.9958C7.05192 14.5028 8.64839 11.2393 11.2724 8.92329C13.8963 6.60731 17.3328 5.42855 20.8259 5.64633ZM20.0886 10.1596C17.9205 10.0244 15.7875 10.7561 14.1588 12.1936C12.5301 13.6311 11.5392 15.6567 11.4041 17.8248L10.1582 37.8079C9.87647 42.3268 13.3045 46.2107 17.8234 46.4924L37.8065 47.7383C39.9746 47.8735 42.1076 47.1418 43.7363 45.7043C45.3649 44.2668 46.3558 42.2412 46.491 40.0731L47.7369 20.09C48.0186 15.5711 44.5906 11.6872 40.0717 11.4055L20.0886 10.1596ZM41.7895 14.932C42.5423 14.9789 43.2456 15.323 43.7448 15.8885C44.2439 16.454 44.4979 17.1947 44.451 17.9475C44.4041 18.7003 44.06 19.4036 43.4945 19.9028C42.929 20.4019 42.1884 20.6559 41.4355 20.609C40.6827 20.5621 39.9794 20.218 39.4802 19.6525C38.9811 19.087 38.7271 18.3464 38.774 17.5935C38.8209 16.8407 39.165 16.1374 39.7305 15.6383C40.296 15.1391 41.0367 14.8851 41.7895 14.932ZM29.6554 17.5949C32.6667 17.7827 35.48 19.159 37.4766 21.421C39.4731 23.683 40.4893 26.6456 40.3015 29.6568C40.1138 32.6681 38.7375 35.4814 36.4755 37.478C34.2134 39.4745 31.2509 40.4907 28.2397 40.303C25.2284 40.1152 22.415 38.7389 20.4185 36.4769C18.422 34.2149 17.4058 31.2523 17.5935 28.2411C17.7813 25.2298 19.1575 22.4165 21.4196 20.4199C23.6816 18.4234 26.6441 17.4072 29.6554 17.5949ZM29.3723 22.1365C27.5655 22.0239 25.788 22.6336 24.4308 23.8315C23.0735 25.0295 22.2478 26.7175 22.1351 28.5242C22.0225 30.331 22.6322 32.1085 23.8301 33.4657C25.028 34.8229 26.716 35.6487 28.5228 35.7614C30.3296 35.874 32.1071 35.2643 33.4643 34.0664C34.8215 32.8685 35.6473 31.1804 35.7599 29.3737C35.8726 27.5669 35.2629 25.7894 34.065 24.4322C32.867 23.075 31.179 22.2492 29.3723 22.1365Z" fill="white"/>
</g>
</svg>
